<svg id="visual" viewBox="0 0 900 350" width="900" height="350" xmlns="http://www.w3.org/2000/svg" xmlns:xlink="http://www.w3.org/1999/xlink" version="1.1"><rect x="0" y="0" width="900" height="350" fill="#ffffff"></rect><defs><linearGradient id="grad1_0" x1="61.1%" y1="0%" x2="100%" y2="100%"><stop offset="-1.4285714285714342%" stop-color="#e1f1ff" stop-opacity="1"></stop><stop offset="101.42857142857143%" stop-color="#e1f1ff" stop-opacity="1"></stop></linearGradient></defs><defs><linearGradient id="grad1_1" x1="61.1%" y1="0%" x2="100%" y2="100%"><stop offset="-1.4285714285714342%" stop-color="#e1f1ff" stop-opacity="1"></stop><stop offset="101.42857142857143%" stop-color="#ffffff" stop-opacity="1"></stop></linearGradient></defs><defs><linearGradient id="grad2_0" x1="0%" y1="0%" x2="38.9%" y2="100%"><stop offset="-1.4285714285714342%" stop-color="#e1f1ff" stop-opacity="1"></stop><stop offset="101.42857142857143%" stop-color="#e1f1ff" stop-opacity="1"></stop></linearGradient></defs><defs><linearGradient id="grad2_1" x1="0%" y1="0%" x2="38.9%" y2="100%"><stop offset="-1.4285714285714342%" stop-color="#ffffff" stop-opacity="1"></stop><stop offset="101.42857142857143%" stop-color="#e1f1ff" stop-opacity="1"></stop></linearGradient></defs><g transform="translate(900, 0)"><path d="M0 262.5C-26.2 259.1 -52.4 255.7 -81.1 249.7C-109.8 243.6 -141 234.9 -153.4 211.2C-165.8 187.4 -159.5 148.7 -173.1 125.8C-186.8 102.9 -220.5 95.9 -238.7 77.6C-256.9 59.2 -259.7 29.6 -262.5 0L0 0Z" fill="#f0f8ff"></path><path d="M0 131.3C-13.1 129.6 -26.2 127.9 -40.6 124.8C-54.9 121.8 -70.5 117.4 -76.7 105.6C-82.9 93.7 -79.7 74.3 -86.6 62.9C-93.4 51.5 -110.2 47.9 -119.4 38.8C-128.5 29.6 -129.9 14.8 -131.2 0L0 0Z" fill="#e1f1ff"></path></g><g transform="translate(0, 350)"><path d="M0 -262.5C32.2 -266.8 64.4 -271.1 81.1 -249.7C97.8 -228.2 99.1 -180.9 116.4 -160.2C133.7 -139.4 167 -145.2 184.5 -134C201.9 -122.8 203.6 -94.7 214 -69.5C224.4 -44.4 243.4 -22.2 262.5 0L0 0Z" fill="#f0f8ff"></path><path d="M0 -131.2C16.1 -133.4 32.2 -135.6 40.6 -124.8C48.9 -114.1 49.6 -90.5 58.2 -80.1C66.8 -69.7 83.5 -72.6 92.2 -67C101 -61.4 101.8 -47.3 107 -34.8C112.2 -22.2 121.7 -11.1 131.3 0L0 0Z" fill="#e1f1ff"></path></g></svg>