<svg id="visual" viewBox="0 0 900 600" width="900" height="600" xmlns="http://www.w3.org/2000/svg" xmlns:xlink="http://www.w3.org/1999/xlink" version="1.1"><rect x="0" y="0" width="900" height="600" fill="#ffffff"></rect><path d="M510 0L393 0L393 86L506 86L506 171L463 171L463 257L413 257L413 343L498 343L498 429L433 429L433 514L473 514L473 600L0 600L0 514L0 514L0 429L0 429L0 343L0 343L0 257L0 257L0 171L0 171L0 86L0 86L0 0L0 0Z" fill="#a4bbff"></path><path d="M380 0L206 0L206 86L288 86L288 171L377 171L377 257L215 257L215 343L223 343L223 429L264 429L264 514L372 514L372 600L0 600L0 514L0 514L0 429L0 429L0 343L0 343L0 257L0 257L0 171L0 171L0 86L0 86L0 0L0 0Z" fill="#b0d8ff"></path><path d="M105 0L236 0L236 86L107 86L107 171L235 171L235 257L142 257L142 343L108 343L108 429L169 429L169 514L169 514L169 600L0 600L0 514L0 514L0 429L0 429L0 343L0 343L0 257L0 257L0 171L0 171L0 86L0 86L0 0L0 0Z" fill="#d4f0ff"></path></svg>