<svg id="visual" viewBox="0 0 900 100" width="900" height="100" xmlns="http://www.w3.org/2000/svg" xmlns:xlink="http://www.w3.org/1999/xlink" version="1.1"><path d="M0 62L16.7 55.5C33.3 49 66.7 36 100 32.5C133.3 29 166.7 35 200 45C233.3 55 266.7 69 300 65.3C333.3 61.7 366.7 40.3 400 32.7C433.3 25 466.7 31 500 39.8C533.3 48.7 566.7 60.3 600 63.2C633.3 66 666.7 60 700 52C733.3 44 766.7 34 800 30.8C833.3 27.7 866.7 31.3 883.3 33.2L900 35L900 0L883.3 0C866.7 0 833.3 0 800 0C766.7 0 733.3 0 700 0C666.7 0 633.3 0 600 0C566.7 0 533.3 0 500 0C466.7 0 433.3 0 400 0C366.7 0 333.3 0 300 0C266.7 0 233.3 0 200 0C166.7 0 133.3 0 100 0C66.7 0 33.3 0 16.7 0L0 0Z" fill="#9d00ff" stroke-linecap="round" stroke-linejoin="miter"></path></svg>