<?xml version="1.0" standalone="no"?><svg xmlns="http://www.w3.org/2000/svg" viewBox="0 0 1440 320"><path fill="#0099ff" fill-opacity="1" d="M0,160L30,144C60,128,120,96,180,117.3C240,139,300,213,360,224C420,235,480,181,540,176C600,171,660,213,720,202.7C780,192,840,128,900,122.7C960,117,1020,171,1080,202.7C1140,235,1200,245,1260,218.7C1320,192,1380,128,1410,96L1440,64L1440,320L1410,320C1380,320,1320,320,1260,320C1200,320,1140,320,1080,320C1020,320,960,320,900,320C840,320,780,320,720,320C660,320,600,320,540,320C480,320,420,320,360,320C300,320,240,320,180,320C120,320,60,320,30,320L0,320Z"></path></svg>