<svg id="visual" viewBox="0 0 540 960" width="540" height="960" xmlns="http://www.w3.org/2000/svg" xmlns:xlink="http://www.w3.org/1999/xlink" version="1.1"><rect x="0" y="0" width="540" height="960" fill="#ff0074"></rect><path d="M0 778L11.3 766.5C22.7 755 45.3 732 67.8 734.8C90.3 737.7 112.7 766.3 135.2 781.3C157.7 796.3 180.3 797.7 202.8 790.5C225.3 783.3 247.7 767.7 270.2 750.5C292.7 733.3 315.3 714.7 337.8 711.7C360.3 708.7 382.7 721.3 405.2 737.2C427.7 753 450.3 772 472.8 781.7C495.3 791.3 517.7 791.7 528.8 791.8L540 792L540 961L528.8 961C517.7 961 495.3 961 472.8 961C450.3 961 427.7 961 405.2 961C382.7 961 360.3 961 337.8 961C315.3 961 292.7 961 270.2 961C247.7 961 225.3 961 202.8 961C180.3 961 157.7 961 135.2 961C112.7 961 90.3 961 67.8 961C45.3 961 22.7 961 11.3 961L0 961Z" fill="#ffffff" stroke-linecap="round" stroke-linejoin="miter"></path></svg>