<svg id="visual" viewBox="0 0 600 900" width="600" height="900" xmlns="http://www.w3.org/2000/svg" xmlns:xlink="http://www.w3.org/1999/xlink" version="1.1"><rect x="0" y="0" width="600" height="900" fill="#b9ffb2"></rect><defs><linearGradient id="grad1_0" x1="0%" y1="0%" x2="100%" y2="100%"><stop offset="30%" stop-color="#b9ffb2" stop-opacity="1"></stop><stop offset="70%" stop-color="#b9ffb2" stop-opacity="1"></stop></linearGradient></defs><defs><linearGradient id="grad2_0" x1="0%" y1="0%" x2="100%" y2="100%"><stop offset="30%" stop-color="#b9ffb2" stop-opacity="1"></stop><stop offset="70%" stop-color="#b9ffb2" stop-opacity="1"></stop></linearGradient></defs><g transform="translate(600, 0)"><path d="M0 486.7C-72 488.5 -144.1 490.2 -186.3 449.7C-228.5 409.2 -240.8 326.6 -277.2 277.2C-313.6 227.8 -374 211.7 -413 171.1C-451.9 130.4 -469.3 65.2 -486.7 0L0 0Z" fill="#5de081"></path></g><g transform="translate(0, 900)"><path d="M0 -486.7C65 -474.3 129.9 -461.9 177.9 -429.6C226 -397.4 257.1 -345.3 304.8 -304.8C352.4 -264.2 416.6 -235.1 449.7 -186.3C482.8 -137.4 484.8 -68.7 486.7 0L0 0Z" fill="#5de081"></path></g></svg>