<svg id="visual" viewBox="0 0 900 600" width="900" height="600" xmlns="http://www.w3.org/2000/svg" xmlns:xlink="http://www.w3.org/1999/xlink" version="1.1"><rect x="0" y="0" width="900" height="600" fill="#ffecfb"></rect><g transform="translate(387.4442892740065 376.92658029442293)"><path d="M160.5 -282.5C254.1 -224 407.6 -274 487.7 -245C567.8 -216 574.4 -108 518.4 -32.3C462.4 43.3 343.8 86.7 296.4 172.3C248.9 257.9 272.7 385.7 235.2 392.2C197.7 398.6 98.8 283.7 21.4 246.6C-56 209.5 -112 250.2 -149.8 243.9C-187.6 237.7 -207.3 184.3 -220.3 135.8C-233.3 87.3 -239.6 43.7 -290.2 -29.2C-340.7 -102 -435.3 -204 -429.7 -265.2C-424 -326.4 -318 -346.8 -229.7 -408.3C-141.3 -469.8 -70.7 -572.4 -18.6 -540.2C33.5 -508 67 -341 160.5 -282.5" fill="#f9f9f9"></path></g></svg>