<svg id="visual" viewBox="0 0 600 900" width="600" height="900" xmlns="http://www.w3.org/2000/svg" xmlns:xlink="http://www.w3.org/1999/xlink" version="1.1"><rect x="0" y="0" width="600" height="900" fill="#e22b99"></rect><path d="M0 342L25 337.7C50 333.3 100 324.7 150 320.2C200 315.7 250 315.3 300 312.7C350 310 400 305 450 316.2C500 327.3 550 354.7 575 368.3L600 382L600 901L575 901C550 901 500 901 450 901C400 901 350 901 300 901C250 901 200 901 150 901C100 901 50 901 25 901L0 901Z" fill="#e22b99"></path><path d="M0 454L25 447.3C50 440.7 100 427.3 150 419.2C200 411 250 408 300 418.2C350 428.3 400 451.7 450 454.2C500 456.7 550 438.3 575 429.2L600 420L600 901L575 901C550 901 500 901 450 901C400 901 350 901 300 901C250 901 200 901 150 901C100 901 50 901 25 901L0 901Z" fill="#ef6fb2"></path><path d="M0 551L25 553C50 555 100 559 150 554.7C200 550.3 250 537.7 300 545.8C350 554 400 583 450 591.5C500 600 550 588 575 582L600 576L600 901L575 901C550 901 500 901 450 901C400 901 350 901 300 901C250 901 200 901 150 901C100 901 50 901 25 901L0 901Z" fill="#f8a2cb"></path><path d="M0 712L25 703.7C50 695.3 100 678.7 150 664.8C200 651 250 640 300 643.5C350 647 400 665 450 678.3C500 691.7 550 700.3 575 704.7L600 709L600 901L575 901C550 901 500 901 450 901C400 901 350 901 300 901C250 901 200 901 150 901C100 901 50 901 25 901L0 901Z" fill="#fdd1e5"></path><path d="M0 767L25 765.3C50 763.7 100 760.3 150 762.3C200 764.3 250 771.7 300 781.8C350 792 400 805 450 807.5C500 810 550 802 575 798L600 794L600 901L575 901C550 901 500 901 450 901C400 901 350 901 300 901C250 901 200 901 150 901C100 901 50 901 25 901L0 901Z" fill="#ffffff"></path></svg>