<svg id="visual" viewBox="0 0 900 450" width="900" height="450" xmlns="http://www.w3.org/2000/svg" xmlns:xlink="http://www.w3.org/1999/xlink" version="1.1"><path d="M0 226L75 231.3C150 236.7 300 247.3 450 226.3C600 205.3 750 152.7 825 126.3L900 100L900 0L825 0C750 0 600 0 450 0C300 0 150 0 75 0L0 0Z" fill="#f3a66a"></path><path d="M0 370L75 369.3C150 368.7 300 367.3 450 335.8C600 304.3 750 242.7 825 211.8L900 181L900 98L825 124.3C750 150.7 600 203.3 450 224.3C300 245.3 150 234.7 75 229.3L0 224Z" fill="#e87c2c"></path><path d="M0 451L75 451C150 451 300 451 450 451C600 451 750 451 825 451L900 451L900 179L825 209.8C750 240.7 600 302.3 450 333.8C300 365.3 150 366.7 75 367.3L0 368Z" fill="#ac5a21"></path></svg>