<svg id="visual" viewBox="0 0 900 450" width="900" height="450" xmlns="http://www.w3.org/2000/svg" xmlns:xlink="http://www.w3.org/1999/xlink" version="1.1"><path d="M0 82L75 82C150 82 300 82 450 107.5C600 133 750 184 825 209.5L900 235L900 0L825 0C750 0 600 0 450 0C300 0 150 0 75 0L0 0Z" fill="#ea7898"></path><path d="M0 253L75 241.8C150 230.7 300 208.3 450 234.7C600 261 750 336 825 373.5L900 411L900 233L825 207.5C750 182 600 131 450 105.5C300 80 150 80 75 80L0 80Z" fill="#d92b65"></path><path d="M0 451L75 451C150 451 300 451 450 451C600 451 750 451 825 451L900 451L900 409L825 371.5C750 334 600 259 450 232.7C300 206.3 150 228.7 75 239.8L0 251Z" fill="#9f204b"></path></svg>