<svg id="visual" viewBox="0 0 900 450" width="900" height="450" xmlns="http://www.w3.org/2000/svg" xmlns:xlink="http://www.w3.org/1999/xlink" version="1.1"><path d="M0 172L75 154.8C150 137.7 300 103.3 450 89.8C600 76.3 750 83.7 825 87.3L900 91L900 0L825 0C750 0 600 0 450 0C300 0 150 0 75 0L0 0Z" fill="#81d2e3"></path><path d="M0 280L75 264.3C150 248.7 300 217.3 450 200.8C600 184.3 750 182.7 825 181.8L900 181L900 89L825 85.3C750 81.7 600 74.3 450 87.8C300 101.3 150 135.7 75 152.8L0 170Z" fill="#2bbed9"></path><path d="M0 451L75 451C150 451 300 451 450 451C600 451 750 451 825 451L900 451L900 179L825 179.8C750 180.7 600 182.3 450 198.8C300 215.3 150 246.7 75 262.3L0 278Z" fill="#208b9f"></path></svg>