<svg id="visual" viewBox="0 0 600 900" width="600" height="900" xmlns="http://www.w3.org/2000/svg" xmlns:xlink="http://www.w3.org/1999/xlink" version="1.1"><rect x="0" y="0" width="600" height="900" fill="#ffffff"></rect><path d="M0 650L14.3 640.2C28.7 630.3 57.3 610.7 85.8 606.3C114.3 602 142.7 613 171.2 633.8C199.7 654.7 228.3 685.3 257 697.3C285.7 709.3 314.3 702.7 343 680.7C371.7 658.7 400.3 621.3 428.8 634C457.3 646.7 485.7 709.3 514.2 722.2C542.7 735 571.3 698 585.7 679.5L600 661L600 901L585.7 901C571.3 901 542.7 901 514.2 901C485.7 901 457.3 901 428.8 901C400.3 901 371.7 901 343 901C314.3 901 285.7 901 257 901C228.3 901 199.7 901 171.2 901C142.7 901 114.3 901 85.8 901C57.3 901 28.7 901 14.3 901L0 901Z" fill="#5edd00" stroke-linecap="round" stroke-linejoin="miter"></path></svg>