<svg id="visual" viewBox="0 0 900 600" width="900" height="600" xmlns="http://www.w3.org/2000/svg" xmlns:xlink="http://www.w3.org/1999/xlink" version="1.1"><rect x="0" y="0" width="900" height="600" fill="#fafafa"></rect><path d="M0 376L21.5 351.7C43 327.3 86 278.7 128.8 275C171.7 271.3 214.3 312.7 257.2 306.3C300 300 343 246 385.8 253.3C428.7 260.7 471.3 329.3 514.2 336.3C557 343.3 600 288.7 642.8 248.2C685.7 207.7 728.3 181.3 771.2 194C814 206.7 857 258.3 878.5 284.2L900 310L900 601L878.5 601C857 601 814 601 771.2 601C728.3 601 685.7 601 642.8 601C600 601 557 601 514.2 601C471.3 601 428.7 601 385.8 601C343 601 300 601 257.2 601C214.3 601 171.7 601 128.8 601C86 601 43 601 21.5 601L0 601Z" fill="#ffcbfc" stroke-linecap="round" stroke-linejoin="miter"></path></svg>